<?xml version="1.0" encoding="utf-8"?>
<!-- Generator: Adobe Illustrator 25.0.0, SVG Export Plug-In . SVG Version: 6.00 Build 0)  -->
<svg version="1.1" id="Layer_1" xmlns="http://www.w3.org/2000/svg" xmlns:xlink="http://www.w3.org/1999/xlink" x="0px" y="0px"
	 viewBox="0 0 1200 209.62" style="enable-background:new 0 0 1200 209.62;" xml:space="preserve">
<style type="text/css">
	.st0{fill:#FED44C;}
	.st1{fill:#F6931E;}
	.st2{fill:#0070AE;}
</style>
<g>
	<path class="st0" d="M2.01,66.99c7.37-1.61,14.01-2.41,19.92-2.41c5.9,0,10.79,0.14,14.69,0.4v10.06
		c3.35-2.82,7.81-5.13,13.38-6.94c5.56-1.81,10.89-2.72,15.99-2.72c13.14,0,22.36,3.09,27.66,9.25c5.3,6.17,7.95,16.83,7.95,31.99
		v38.62c5.23,2.01,8.92,4.29,11.06,6.84l-2.01,15.49H64.38l-2.01-15.49c1.88-2.55,5.56-4.83,11.06-6.84v-39.83
		c0-7.24-1.18-12.1-3.52-14.58c-2.35-2.48-6.54-3.72-12.57-3.72c-6.04,0-12.07,2.15-18.11,6.44v51.7c5.23,2.01,8.92,4.29,11.06,6.84
		l-2.01,15.49H2.01L0,152.09c1.88-2.55,5.56-4.83,11.06-6.84V89.32C6.37,87.71,2.68,85.43,0,82.48L2.01,66.99z"/>
	<path class="st0" d="M167.98,169.19c-16.09,0-28.2-4.29-36.31-12.88c-8.12-8.58-12.17-21.05-12.17-37.42
		c0-9.92,1.41-18.47,4.22-25.65c2.82-7.17,6.64-12.71,11.47-16.6c9.39-7.51,20.32-11.27,32.79-11.27s22.03,3.19,28.67,9.56
		c6.64,6.37,9.96,17.8,9.96,34.3c0,9.66-4.76,14.48-14.28,14.48h-43.65c0.53,8.45,2.72,14.42,6.54,17.9
		c3.82,3.49,9.89,5.23,18.21,5.23c4.56,0,8.92-0.53,13.08-1.61c4.16-1.07,7.17-2.14,9.05-3.22l2.82-1.61l6.04,16.09
		c-0.8,0.94-1.98,2.11-3.52,3.52c-1.54,1.41-5.43,3.29-11.67,5.63C182.96,168.01,175.89,169.19,167.98,169.19z M180.65,105.82
		c0.27-1.88,0.4-4.16,0.4-6.84c0-2.68-1.08-5.53-3.22-8.55c-2.15-3.02-5.87-4.53-11.17-4.53c-5.3,0-9.35,1.61-12.17,4.83
		c-2.82,3.22-4.7,8.65-5.63,16.3L180.65,105.82z"/>
	<path class="st0" d="M309.8,168.78L299.54,137c-2.15-6.44-3.82-14.48-5.03-24.14l-0.6-4.83h-2.82
		c-1.34,10.46-3.35,20.05-6.04,28.77l-9.46,31.99h-28.57l-25.35-79.06c-5.77-2.01-9.73-4.43-11.87-7.24l2.01-15.49h47.07l2.01,15.49
		c-2.41,2.82-6.51,5.23-12.27,7.24l11.67,51.3h2.82c1.47-7.11,3.22-14.42,5.23-21.93l13.68-51.7h22.53l13.48,51.3l5.03,22.33h2.82
		c4.96-22.66,8.31-37.89,10.06-45.67l1.21-5.63c-6.04-2.14-10.06-4.56-12.07-7.24l2.01-15.49h44.66l2.01,15.49
		c-2.28,3.09-6.51,5.63-12.67,7.64l-25.15,78.66H309.8z"/>
	<path class="st0" d="M374.58,187.69c4.83,0,8.25-1.24,10.26-3.72c2.01-2.48,3.02-7.34,3.02-14.58V52.31
		c-5.5-2.01-9.19-4.29-11.06-6.84l2.01-16.7h47.07l2.01,16.7c-2.15,2.55-5.83,4.83-11.06,6.84l-0.2,115.27
		c0,15.42-2.99,26.25-8.95,32.49c-5.97,6.24-15.63,9.35-28.97,9.35c-13.34,0-24.78-3.49-34.3-10.46c0-0.8,0-2.25,0-4.33
		c0-2.08,0.44-5.5,1.31-10.26c0.87-4.76,2.11-8.75,3.72-11.97h18.11c1.88,2.95,3.22,7.98,4.02,15.09
		C372.23,187.63,373.24,187.69,374.58,187.69z"/>
	<path class="st0" d="M481.7,169.19c-15.89,0-27.66-4.22-35.31-12.67c-7.64-8.45-11.47-21.22-11.47-38.32
		c0-17.1,4.26-30.18,12.77-39.23c8.52-9.05,20.75-13.58,36.71-13.58c15.96,0,27.79,4.02,35.51,12.07
		c7.71,8.05,11.57,20.62,11.57,37.72c0,17.1-4.33,30.38-12.98,39.83C509.87,164.46,497.6,169.19,481.7,169.19z M463.9,116.48
		c0,21.46,6.44,32.19,19.31,32.19c6.57,0,11.43-2.45,14.58-7.34c3.15-4.89,4.73-12.91,4.73-24.04c0-20.92-6.57-31.38-19.72-31.38
		c-6.44,0-11.2,2.31-14.28,6.94C465.44,97.47,463.9,105.35,463.9,116.48z"/>
	<path class="st0" d="M537.53,24.75c7.51-1.74,14.48-2.62,20.92-2.62c6.44,0,11.87,0.2,16.29,0.6v50.29
		c2.82-2.01,6.57-3.79,11.27-5.33c4.69-1.54,9.18-2.31,13.48-2.31c14.62,0,24.88,3.76,30.78,11.27c5.9,7.51,8.85,20.32,8.85,38.42
		c0,10.06-1.38,18.74-4.12,26.05c-2.75,7.31-6.47,12.91-11.17,16.8c-8.85,7.51-19.31,11.27-31.38,11.27
		c-9.12,0-18.11-2.28-26.96-6.84c-2.55,3.49-5.5,5.23-8.85,5.23h-10.06V47.08c-4.7-1.61-8.38-3.89-11.06-6.84L537.53,24.75z
		 M590.84,148.67c12.88,0,19.31-10.79,19.31-32.39c0-11.4-1.11-19.14-3.32-23.24c-2.21-4.09-6.07-6.13-11.57-6.13
		c-8.32,0-15.16,2.21-20.52,6.64v51.7C580.51,147.53,585.87,148.67,590.84,148.67z"/>
	<path class="st0" d="M690.01,83.49c-8.85,0-13.28,2.62-13.28,7.85c0,4.96,4.62,8.65,13.88,11.06l15.89,4.22
		c16.36,4.29,24.54,13.75,24.54,28.37c0,10.06-3.52,18.27-10.56,24.64c-7.04,6.37-18.24,9.56-33.59,9.56
		c-15.36,0-27.33-2.14-35.91-6.44c-0.14-1.47-0.2-2.95-0.2-4.43c0-7.37,1.47-14.01,4.43-19.92h16.7c1.74,3.22,2.88,6.57,3.42,10.06
		c2.68,0.8,6.5,1.21,11.47,1.21c11.8,0,17.7-3.35,17.7-10.06c0-2.14-0.81-3.92-2.41-5.33c-1.61-1.41-4.76-2.78-9.46-4.12
		l-15.89-4.63c-8.19-2.28-14.56-5.66-19.11-10.16c-4.56-4.49-6.84-11.13-6.84-19.92c0-8.78,3.55-15.99,10.66-21.63
		c7.11-5.63,17.26-8.45,30.48-8.45c13.21,0,24.37,1.95,33.49,5.83c0.13,1.34,0.2,2.68,0.2,4.02c0,6.98-1.48,13.41-4.43,19.31H704.7
		c-1.75-3.08-2.89-6.3-3.42-9.66C697.52,83.96,693.77,83.49,690.01,83.49z"/>
	<path class="st1" d="M774.86,0l20.43,7.86c-7.14,17.09-12.15,32.87-15.03,47.35c-1.44,7.33-2.52,15.05-3.24,23.13
		c-0.72,8.09-1.08,16.91-1.08,26.47c0,9.63,0.36,18.48,1.08,26.57c0.72,8.09,1.8,15.8,3.24,23.13c2.82,14.41,7.83,30.16,15.03,47.25
		l-20.43,7.86c-14.28-29.93-21.41-64.86-21.41-104.81C753.45,64.86,760.58,29.93,774.86,0z"/>
	<path class="st2" d="M841.34,190.91c2.41,0,4.99-2.25,7.74-6.74c2.75-4.49,4.66-9.83,5.73-15.99l-32.99-78.05
		c-6.57-2.14-11-4.69-13.28-7.64l2.01-15.49h46.27l2.01,15.49c-1.75,2.15-4.7,4.09-8.85,5.83l11.06,30.38
		c2.41,6.31,4.09,12.54,5.03,18.71l0.6,2.82h2.82c1.07-6.7,2.95-13.75,5.63-21.12l10.66-29.77c-4.96-1.88-8.45-4.16-10.46-6.84
		l2.01-15.49h44.26l2.01,15.49c-2.41,3.09-6.84,5.7-13.28,7.85l-33.19,78.46c-6.3,14.89-11.13,24.47-14.48,28.77
		c-5.9,7.91-14.12,11.87-24.64,11.87c-10.53,0-18.54-2.75-24.04-8.25c-0.14-1.34-0.2-2.68-0.2-4.02c0-7.38,1.54-14.35,4.63-20.92
		h16.7c2.01,3.62,3.15,8.52,3.42,14.69H841.34z"/>
	<path class="st2" d="M971.39,169.19c-15.89,0-27.66-4.22-35.31-12.67c-7.64-8.45-11.47-21.22-11.47-38.32
		c0-17.1,4.26-30.18,12.77-39.23c8.52-9.05,20.75-13.58,36.71-13.58c15.96,0,27.79,4.02,35.51,12.07
		c7.71,8.05,11.57,20.62,11.57,37.72c0,17.1-4.33,30.38-12.98,39.83C999.56,164.46,987.29,169.19,971.39,169.19z M953.59,116.48
		c0,21.46,6.44,32.19,19.31,32.19c6.57,0,11.43-2.45,14.59-7.34c3.15-4.89,4.73-12.91,4.73-24.04c0-20.92-6.57-31.38-19.72-31.38
		c-6.44,0-11.2,2.31-14.28,6.94C955.13,97.47,953.59,105.35,953.59,116.48z"/>
	<path class="st2" d="M1105.67,159.13c-9.25,6.71-20.15,10.06-32.69,10.06c-12.54,0-21.29-2.62-26.25-7.85
		c-4.96-5.23-7.44-13.75-7.44-25.55V89.32c-4.7-1.61-8.38-3.89-11.06-6.84l2.01-15.49c7.51-1.74,14.49-2.62,20.92-2.62
		s11.87,0.2,16.3,0.6v64.17c0,7.24,1.11,12.04,3.32,14.38c2.21,2.35,6.61,3.52,13.18,3.52c6.57,0,12.67-2.14,18.31-6.44v-51.3
		c-4.7-1.61-8.38-3.89-11.06-6.84l2.01-15.49c7.51-1.74,14.49-2.62,20.92-2.62c6.44,0,11.87,0.2,16.29,0.6v78.46
		c4.69,0.94,8.38,2.08,11.06,3.42v15.89c-8.05,4.29-18.17,6.44-30.38,6.44C1107.75,166.77,1105.94,163.42,1105.67,159.13z"/>
	<path class="st1" d="M1178.59,209.62l-20.43-7.86c7.2-17.09,12.21-32.84,15.03-47.25c2.95-14.41,4.42-30.97,4.42-49.7
		c0-18.6-1.47-35.13-4.42-49.61c-2.88-14.47-7.89-30.25-15.03-47.35L1178.59,0c14.28,29.93,21.41,64.86,21.41,104.81
		C1200,144.76,1192.86,179.69,1178.59,209.62z"/>
</g>
</svg>
